<?xml version="1.0" standalone="no"?>
<!DOCTYPE svg PUBLIC "-//W3C//DTD SVG 20010904//EN"
 "http://www.w3.org/TR/2001/REC-SVG-20010904/DTD/svg10.dtd">
<svg version="1.0" xmlns="http://www.w3.org/2000/svg"
 width="360.000000pt" height="360.000000pt" viewBox="0 0 360.000000 360.000000"
 preserveAspectRatio="xMidYMid meet">
<metadata>
Created by potrace 1.14, written by Peter Selinger 2001-2017
</metadata>
<g transform="translate(0.000000,360.000000) scale(0.100000,-0.100000)"
fill="#000000" stroke="none">
<path d="M0 1800 l0 -1800 1800 0 1800 0 0 162 c0 139 -2 164 -17 181 -17 19
-17 20 0 14 16 -6 17 75 17 1618 l0 1625 -1800 0 -1800 0 0 -1800z m2843 912
c4 -6 5 -17 2 -22 -3 -6 -3 -16 2 -22 4 -7 8 -19 9 -26 2 -11 -2 -10 -19 1
-12 8 -23 24 -25 36 -2 12 -10 25 -18 28 -23 9 -16 19 14 19 15 -1 31 -7 35
-14z m57 -12 c0 13 1 13 10 0 6 -10 10 -11 10 -2 0 19 27 14 43 -8 8 -11 16
-17 20 -14 9 10 44 -31 38 -47 -4 -12 -2 -12 13 0 14 12 16 12 10 -3 -4 -10
-13 -15 -24 -11 -19 6 -20 -1 -6 -42 4 -13 15 -23 24 -23 15 0 15 -2 2 -10
-20 -13 -43 -13 -35 0 3 6 0 10 -7 10 -10 0 -10 2 1 9 8 5 9 11 3 15 -6 3 -13
2 -17 -4 -9 -14 -25 -12 -25 3 0 9 -14 13 -44 12 -35 -1 -46 2 -49 17 -3 10
-2 18 2 18 4 0 7 9 7 20 0 11 -4 20 -8 20 -4 0 -8 10 -8 23 0 18 2 19 10 7 8
-12 10 -12 10 5 0 17 2 17 10 5 9 -13 10 -13 10 0z m159 -211 c-10 -6 -11 -9
-1 -9 6 0 12 -5 12 -11 0 -5 -10 -3 -22 5 -29 21 -45 20 -51 -1 -3 -13 -5 -11
-6 6 -1 21 2 23 29 17 23 -4 32 -2 37 11 5 12 8 13 11 4 2 -7 -2 -17 -9 -22z
m-89 -121 c0 -4 -5 -8 -11 -8 -5 0 -8 4 -4 9 3 5 1 12 -5 16 -5 3 -10 12 -10
18 1 13 30 -22 30 -35z m20 11 c0 -6 -4 -7 -10 -4 -5 3 -10 11 -10 16 0 6 5 7
10 4 6 -3 10 -11 10 -16z m-165 -355 c14 -15 25 -22 25 -15 0 6 7 11 16 11 8
0 12 -4 9 -10 -3 -5 2 -9 12 -7 10 1 18 -2 18 -8 0 -5 -3 -9 -6 -8 -3 1 -6 -4
-6 -12 0 -8 4 -12 8 -9 9 5 4 -104 -5 -113 -3 -3 0 -13 7 -21 10 -13 9 -14 -1
-8 -11 7 -12 4 -3 -13 6 -11 16 -42 21 -68 5 -27 16 -66 26 -88 9 -22 18 -58
21 -79 2 -22 11 -45 21 -52 13 -11 14 -15 4 -22 -10 -7 -10 -14 1 -35 8 -15
17 -24 20 -21 3 4 4 -6 1 -22 -3 -16 -12 -35 -21 -41 -15 -12 -15 -13 5 -13
14 0 20 -5 16 -14 -3 -9 4 -19 17 -27 19 -10 20 -13 8 -23 -8 -6 -15 -31 -16
-54 -1 -24 -7 -50 -13 -57 -6 -8 -10 -29 -8 -47 2 -21 -2 -33 -9 -34 -7 -1
-21 -2 -30 -3 -13 -1 -14 -4 -6 -12 6 -6 9 -18 6 -27 -4 -9 -2 -13 4 -9 7 5 9
0 6 -13 -3 -11 -9 -23 -14 -26 -5 -3 -9 -13 -9 -23 0 -10 -9 -26 -20 -36 -11
-10 -18 -20 -15 -23 3 -3 -4 -11 -15 -19 -11 -8 -20 -20 -20 -26 0 -7 -10 -17
-22 -22 -13 -6 -22 -13 -20 -18 3 -9 -27 -67 -44 -85 -11 -11 -14 -11 -14 0 0
8 -4 7 -11 -4 -5 -10 -17 -18 -24 -18 -8 0 -15 -5 -15 -10 0 -17 -38 -53 -49
-46 -5 4 -13 1 -17 -5 -4 -8 -3 -9 4 -5 7 4 12 4 12 1 0 -3 -15 -13 -32 -21
-18 -8 -40 -18 -48 -23 -8 -5 -32 -17 -52 -27 -21 -10 -38 -22 -38 -26 0 -5
-9 -8 -21 -8 -11 0 -17 -4 -14 -10 3 -5 -4 -11 -17 -11 -47 -3 -53 -4 -53 -16
0 -6 -4 -15 -8 -20 -5 -4 -7 -3 -5 4 2 6 0 11 -4 12 -24 3 -38 -1 -52 -15 -9
-8 -16 -13 -16 -9 0 3 -6 3 -12 -2 -22 -13 -50 -14 -65 -2 -11 10 -12 9 -7 -5
4 -11 2 -15 -7 -11 -8 3 -36 1 -62 -4 -28 -5 -47 -5 -47 1 0 5 -9 4 -20 -2
-14 -8 -20 -8 -20 0 0 6 -5 8 -10 5 -6 -4 -8 -12 -4 -18 3 -7 -1 -4 -10 7 -9
12 -21 16 -32 12 -10 -4 -21 -1 -26 6 -5 9 -8 8 -8 -6 0 -19 3 -19 -84 -1 -11
3 -22 8 -25 12 -3 5 -25 8 -48 8 -24 0 -43 2 -43 5 0 3 -16 6 -35 7 -49 2 -65
5 -65 12 0 4 -13 7 -30 7 -17 1 -27 -2 -24 -8 4 -6 -3 -5 -15 1 -11 7 -21 16
-21 21 0 6 -3 9 -7 8 -13 -4 -93 35 -93 45 0 4 -4 6 -9 2 -5 -3 -12 -1 -16 5
-3 5 -15 10 -26 10 -10 0 -18 3 -18 8 4 26 -3 34 -24 28 -16 -4 -31 1 -45 15
-12 11 -26 18 -31 15 -10 -6 -47 44 -43 57 1 5 -2 6 -8 2 -6 -4 -24 8 -40 25
-17 18 -30 28 -30 24 -1 -5 -10 2 -21 16 -12 14 -23 24 -25 23 -2 -2 -10 -3
-16 -2 -10 0 -10 2 -1 5 14 6 6 31 -19 56 -22 22 -86 38 -73 19 6 -10 3 -11
-15 -1 -18 10 -24 9 -31 -1 -6 -10 -10 -10 -23 0 -12 10 -20 9 -45 -4 -17 -8
-31 -12 -31 -7 0 13 -76 35 -99 29 -12 -3 -24 0 -28 5 -3 7 -1 8 5 4 7 -4 12
-3 12 1 0 5 -9 14 -20 21 -17 10 -20 10 -20 -3 0 -9 -6 -12 -16 -8 -8 3 -13
12 -10 19 3 8 0 13 -7 11 -7 -1 -12 7 -12 18 -1 28 -14 47 -27 39 -7 -4 -8 -2
-4 4 4 6 -2 20 -14 32 -11 11 -20 25 -20 31 0 5 -4 8 -8 5 -4 -2 -14 0 -22 5
-13 8 -13 10 0 19 8 5 11 10 6 10 -5 0 -2 8 5 17 12 14 12 16 0 8 -11 -6 -13
-3 -9 13 4 12 2 25 -3 28 -14 8 -11 24 6 24 8 0 12 6 9 14 -3 8 -1 17 4 20 6
3 8 15 5 26 -3 11 -1 20 5 20 6 0 13 18 17 39 7 40 36 78 53 67 5 -3 9 1 9 9
0 11 -5 12 -20 4 -22 -13 -38 -2 -17 11 8 6 11 10 6 10 -6 0 -1 7 10 15 10 8
14 15 7 15 -6 0 -11 9 -10 20 1 20 12 17 12 -3 0 -7 7 -12 16 -12 21 0 49 -24
49 -40 0 -17 30 -28 30 -12 1 8 5 7 13 -3 7 -8 23 -16 37 -18 14 -1 33 -13 42
-25 10 -12 18 -17 18 -12 0 6 4 5 8 -2 4 -6 20 -15 36 -19 25 -6 28 -4 23 10
-4 10 -3 15 3 11 6 -3 10 -1 10 5 0 6 5 8 10 5 6 -4 17 -1 25 5 8 6 19 9 24 5
17 -10 51 56 50 95 0 19 7 66 15 105 9 38 16 80 16 92 0 13 5 23 11 23 5 0 8
4 4 9 -3 5 6 21 19 34 14 14 22 28 19 31 -4 3 -1 6 5 6 7 0 12 5 12 10 0 18
65 77 91 83 24 6 26 4 27 -36 1 -23 7 -44 12 -45 6 -2 8 -8 4 -13 -3 -5 6 -14
20 -20 13 -6 27 -21 30 -33 5 -17 8 -18 15 -7 6 9 29 15 60 16 28 1 57 8 66
15 8 7 15 9 15 4 0 -5 7 -1 15 9 9 13 20 17 33 13 11 -4 23 -2 26 3 4 6 13 8
22 4 8 -3 14 -2 13 3 -4 24 3 32 23 26 13 -3 19 -1 15 5 -6 10 37 29 55 25 4
-1 10 7 13 18 4 11 13 20 21 20 9 0 23 7 31 16 15 14 17 14 25 0 14 -25 6 -72
-12 -68 -11 3 -9 -2 5 -18 10 -11 25 -18 32 -16 7 3 20 -2 28 -11 34 -33 205
33 205 79 0 10 5 19 10 19 32 4 61 20 54 30 -3 5 2 9 12 9 9 0 24 8 33 18 9
10 30 25 46 33 17 8 42 23 58 33 24 16 27 17 27 2 0 -9 5 -16 11 -16 8 0 8 -4
0 -14 -18 -22 -1 -93 20 -81 5 4 9 1 9 -4 0 -6 7 -11 15 -11 8 0 15 -4 15 -9
0 -10 85 -9 96 2 11 11 36 9 29 -3 -3 -6 1 -7 10 -4 11 5 13 10 5 19 -8 10 -1
17 30 29 22 9 40 20 40 26 0 5 13 10 30 10 21 0 28 4 24 14 -11 29 33 52 89
47 9 -1 17 3 17 8 0 19 20 12 45 -15z m446 -1568 c9 0 16 -9 16 -21 1 -46 3
-56 13 -50 6 3 7 -1 4 -9 -3 -9 -10 -16 -15 -16 -5 0 -9 -7 -9 -15 0 -8 -5
-15 -11 -15 -5 0 -7 5 -3 11 4 7 0 9 -14 5 -11 -4 -32 -4 -46 0 -23 5 -25 10
-23 52 3 62 12 76 46 66 14 -4 33 -7 42 -8z m-108 -16 c-3 -12 -8 -19 -11 -16
-5 6 5 36 12 36 2 0 2 -9 -1 -20z m4 -62 c-3 -8 -6 -5 -6 6 -1 11 2 17 5 13 3
-3 4 -12 1 -19z m-1490 -40 c-3 -7 -5 -2 -5 12 0 14 2 19 5 13 2 -7 2 -19 0
-25z m243 -14 c0 -24 26 -40 34 -21 2 7 5 2 5 -9 1 -12 7 -24 15 -27 15 -6 29
-47 15 -47 -5 0 -9 -6 -9 -14 0 -7 -9 -16 -21 -19 -11 -3 -23 -15 -26 -26 -5
-20 -19 -26 -56 -23 -10 1 -16 -2 -13 -7 3 -5 -1 -14 -8 -20 -10 -9 -16 -9
-21 -1 -4 6 -13 9 -21 6 -12 -5 -12 -2 -3 17 9 18 9 20 -1 10 -17 -16 -51 2
-44 22 4 9 1 21 -5 29 -6 7 -8 16 -4 20 10 9 11 46 2 46 -5 0 -15 13 -24 29
-14 28 -14 29 8 26 12 -1 29 -6 37 -9 9 -4 25 3 40 16 18 17 22 18 17 5 -3 -9
-3 -17 2 -17 5 0 11 8 13 18 3 12 15 17 36 17 26 0 32 -4 32 -21z m-125 6 c-3
-5 -11 -10 -16 -10 -6 0 -7 5 -4 10 3 6 11 10 16 10 6 0 7 -4 4 -10z m-1584
-14 c-8 -10 -9 -16 -1 -21 5 -3 10 -1 10 5 0 6 4 9 9 6 5 -4 12 0 14 6 3 8 6
6 6 -5 1 -11 6 -16 14 -12 6 4 3 -1 -8 -11 -19 -15 -19 -16 -1 -10 22 8 59 -2
51 -13 -2 -5 -15 -6 -29 -4 -27 6 -46 -15 -25 -28 8 -5 16 -3 21 4 5 9 12 7
25 -6 17 -17 17 -18 -1 -11 -15 6 -17 4 -11 -6 6 -10 4 -12 -9 -7 -9 4 -15 3
-12 -2 6 -8 -30 -51 -42 -51 -5 0 -14 6 -21 13 -11 10 -13 9 -8 -6 6 -16 4
-16 -22 -3 -23 12 -27 20 -24 41 3 14 0 32 -7 40 -9 10 -9 15 -1 15 6 0 11 11
11 24 0 13 7 26 15 30 8 3 15 0 15 -7 0 -6 7 -1 16 11 8 12 18 22 21 22 3 0 0
-6 -6 -14z m1479 -60 c0 -17 -14 -29 -23 -20 -8 8 3 34 14 34 5 0 9 -6 9 -14z
m50 -16 c0 -5 -4 -10 -10 -10 -5 0 -10 5 -10 10 0 6 5 10 10 10 6 0 10 -4 10
-10z m-1600 -36 c0 -8 -4 -12 -10 -9 -5 3 -10 13 -10 21 0 8 5 12 10 9 6 -3
10 -13 10 -21z m1556 -41 c-3 -4 -6 -1 -6 5 0 7 -8 12 -17 12 -15 0 -16 2 -3
10 10 6 17 4 23 -6 5 -9 6 -18 3 -21z"/>
<path d="M2915 2671 c-3 -5 -2 -12 3 -15 5 -3 9 1 9 9 0 17 -3 19 -12 6z"/>
<path d="M2940 2646 c0 -8 10 -17 23 -20 21 -7 21 -8 3 -15 -16 -6 -17 -9 -4
-13 9 -4 21 4 31 22 19 31 11 49 -9 22 -7 -9 -14 -12 -14 -6 0 17 -30 26 -30
10z"/>
<path d="M2900 2614 c6 -6 6 -14 2 -19 -4 -4 0 -6 8 -3 23 7 24 34 1 34 -14 0
-17 -4 -11 -12z"/>
<path d="M2650 1680 c0 -5 -16 -6 -35 -3 -26 4 -35 2 -35 -8 0 -12 -2 -12 -9
0 -6 9 -14 10 -27 3 -11 -6 -22 -10 -27 -11 -4 0 -30 -23 -59 -51 -42 -41 -48
-51 -34 -56 10 -4 15 -13 12 -21 -3 -8 -2 -12 3 -9 5 3 12 -6 15 -20 6 -21 10
-23 21 -14 7 6 22 10 32 8 9 -2 18 3 19 10 1 6 2 17 3 22 0 6 4 9 9 8 4 -1 17
3 28 10 12 6 31 9 43 7 11 -2 21 1 21 8 0 8 3 8 12 -1 15 -15 48 -16 48 -1 0
6 7 8 16 5 11 -4 15 -2 11 8 -3 8 2 16 14 19 10 3 19 11 19 17 0 8 -9 10 -23
6 -14 -3 -32 1 -43 9 -17 14 -17 14 11 5 l30 -10 -27 24 c-15 13 -25 26 -22
29 3 2 -2 7 -11 10 -8 4 -15 2 -15 -3z"/>
<path d="M1848 1523 c-11 -3 -15 -10 -11 -20 4 -10 2 -14 -4 -10 -5 3 -22 3
-38 -1 -22 -6 -29 -14 -30 -36 0 -15 -6 -30 -12 -34 -16 -11 -24 -45 -13 -62
7 -12 10 -12 10 -1 0 8 6 11 15 7 9 -3 36 4 60 15 24 11 49 18 55 14 5 -3 10
-1 10 5 0 8 9 10 25 6 15 -4 25 -2 25 4 0 6 13 1 30 -11 16 -13 33 -20 37 -16
3 4 1 7 -5 7 -7 0 -12 4 -12 10 0 5 7 7 16 3 27 -10 15 89 -12 103 -29 15 -74
23 -74 13 0 -11 -33 -12 -45 -1 -6 5 -18 7 -27 5z"/>
<path d="M2026 1481 c-4 -5 3 -7 14 -4 23 6 26 13 6 13 -8 0 -17 -4 -20 -9z"/>
<path d="M2917 1303 c-9 -2 -15 -9 -12 -14 4 -5 1 -9 -4 -9 -6 0 -10 -12 -10
-27 2 -25 2 -25 6 -5 4 19 7 21 19 11 7 -6 11 -16 7 -22 -3 -6 -1 -7 5 -3 6 3
9 15 7 26 -2 11 1 19 8 17 6 -1 13 6 15 16 3 17 -5 19 -41 10z"/>
<path d="M2790 1282 c0 -10 6 -24 13 -31 10 -11 9 -12 -3 -6 -11 6 -12 5 -4
-4 16 -18 46 -2 39 20 -5 14 -1 19 12 20 13 1 11 3 -7 9 -40 13 -50 11 -50 -8z"/>
<path d="M2083 1154 c-13 -12 -23 -27 -23 -33 0 -7 -7 -19 -15 -27 -8 -9 -15
-21 -15 -27 0 -7 5 -6 11 3 9 12 10 11 4 -5 -11 -33 -11 -40 3 -37 6 1 13 -7
13 -18 1 -11 3 -24 4 -30 1 -5 3 -13 4 -16 0 -4 8 -1 16 6 12 10 15 9 15 -8 0
-12 11 -24 30 -32 16 -7 30 -12 32 -12 2 1 20 -3 41 -7 20 -5 37 -5 37 -1 0 5
9 6 20 3 12 -3 20 0 20 6 0 7 -6 11 -12 10 -7 -1 -24 -1 -38 0 -20 1 -22 3
-10 11 9 6 10 10 3 10 -6 0 -18 3 -27 6 -9 3 -16 1 -16 -6 0 -6 5 -8 12 -4 7
4 8 3 4 -4 -4 -6 -13 -9 -21 -6 -18 7 -27 32 -14 40 6 4 7 10 0 17 -13 17 7
32 42 32 15 0 31 -6 36 -14 6 -9 11 -10 15 -2 5 7 15 7 32 1 31 -12 37 -12 30
-1 -3 5 2 15 11 22 14 13 16 11 11 -18 -2 -18 -1 -30 4 -27 14 9 9 -13 -7 -26
-8 -7 -12 -16 -9 -21 3 -5 2 -9 -3 -8 -18 3 -33 -1 -33 -10 0 -5 16 -7 36 -4
46 6 126 54 119 70 -2 7 0 13 6 13 6 0 8 4 4 9 -3 5 -1 12 5 16 5 3 8 25 6 49
-3 46 -40 96 -64 88 -7 -2 -18 1 -25 7 -9 7 -16 5 -25 -10 -11 -17 -16 -18
-28 -8 -12 10 -16 9 -20 -8 -5 -17 -12 -19 -42 -16 -20 2 -38 8 -40 13 -2 6
-14 10 -26 10 -12 0 -28 6 -35 13 -11 10 -13 10 -7 0 10 -17 -30 -17 -41 0 -6
9 -13 7 -30 -9z"/>
<path d="M1452 1078 c-9 -102 -9 -109 1 -99 6 6 16 7 27 1 11 -6 23 -5 33 3
15 11 15 16 0 60 -8 26 -20 47 -25 47 -6 0 -7 -8 -4 -17 6 -16 6 -16 -12 0
-13 12 -19 13 -20 5z m68 -82 c0 -2 -7 -7 -16 -10 -8 -3 -12 -2 -9 4 6 10 25
14 25 6z"/>
<path d="M1550 1052 c-4 -48 -3 -102 2 -107 3 -3 18 0 33 7 21 10 26 17 23 39
-3 20 -1 26 10 21 12 -4 12 -1 3 15 -6 12 -24 26 -40 31 -25 9 -30 8 -31 -6z"/>
<path d="M1960 500 c0 -5 5 -10 10 -10 6 0 10 5 10 10 0 6 -4 10 -10 10 -5 0
-10 -4 -10 -10z"/>
<path d="M1750 291 c0 -6 4 -13 10 -16 6 -3 7 1 4 9 -7 18 -14 21 -14 7z"/>
<path d="M175 260 c3 -5 8 -10 11 -10 2 0 4 5 4 10 0 6 -5 10 -11 10 -5 0 -7
-4 -4 -10z"/>
</g>
</svg>
